<svg xmlns="http://www.w3.org/2000/svg" height="411.38" width="951.556" viewBox="0 0 951.55641 411.38"><title>HTML5 Logo</title><g><path fill="#e44d26" d="M657.145 0l-33.046 370.199-148.543 41.181-148.134-41.123-33.011-370.257z"/><path fill="#f16529" d="M475.778 379.903l120.03-33.277 28.24-316.352h-148.27z"/><path fill="#ebebeb" d="M411.538 121.096h64.24v-45.411h-113.868l1.087 12.183 11.161 125.139h101.62v-45.41h-60.09z"/><path fill="#ebebeb" d="M475.778 332.779v-47.246l-.199.053-50.574-13.656-3.233-36.217h-45.585l6.362 71.301 93.02 25.823z"/><path fill="#fff" d="M581.177 167.597h-105.556v45.41h55.918l-5.271 58.894-50.647 13.67v47.244l93.094-25.801.683-7.672 10.671-119.551z"/><path fill="#fff" d="M475.621 120.985v.111h109.688l.911-10.207 2.069-23.021 1.086-12.183h-113.754v28.204z"/></g><g style="line-height:125%" font-size="93.75" font-family="Big John" letter-spacing="0" word-spacing="0"><path style="-inkscape-font-specification:'Big John'" d="M740.07 192.143c0-12-9.656-21.563-21.656-21.563-12 0-21.563 9.656-21.563 21.656 0 12 9.563 21.563 21.563 21.563 2.906 0 5.344 2.438 5.344 5.344s-2.438 5.25-5.344 5.25-5.25-2.344-5.25-5.344h-16.406c0 12.375 9.656 21.844 21.656 21.844 12 0 21.656-9.563 21.656-21.563 0-5.156-1.688-9.844-4.688-13.594-3.938-5.063-10.125-8.344-16.969-8.344-2.906 0-5.25-2.344-5.25-5.25s2.344-5.344 5.25-5.344 5.344 2.438 5.344 5.344h16.313z"/><path style="-inkscape-font-specification:'Big John'" d="M753.086 240.893h18.469v-70.313h-18.469v70.313z"/><path style="-inkscape-font-specification:'Big John'" d="M784.273 188.862h18.281v52.031h18.469v-52.031h18.656v-18.375h-55.406v18.375z"/><path style="-inkscape-font-specification:'Big John'" d="M852.423 240.893h43.688v-15.094h-25.219v-12.938h22.313v-15.563h-22.313v-11.438h25.219v-15.281h-43.688v70.313z"/><path style="-inkscape-font-specification:'Big John'" d="M951.556 192.143c0-12-9.656-21.563-21.656-21.563-12 0-21.563 9.656-21.563 21.656 0 12 9.563 21.563 21.563 21.563 2.906 0 5.344 2.438 5.344 5.344s-2.438 5.25-5.344 5.25-5.25-2.344-5.25-5.344h-16.406c0 12.375 9.656 21.844 21.656 21.844 12 0 21.656-9.563 21.656-21.563 0-5.156-1.688-9.844-4.688-13.594-3.938-5.063-10.125-8.344-16.969-8.344-2.906 0-5.25-2.344-5.25-5.25s2.344-5.344 5.25-5.344 5.344 2.438 5.344 5.344h16.313z"/></g><g style="line-height:125%" font-size="93.75" font-family="Big John" letter-spacing="0" word-spacing="0"><path style="-inkscape-font-specification:'Big John'" d="M0 170.581v70.313h18.469v-26.813h22.313v26.813h18.469v-70.313h-18.469v25.031h-22.313v-25.031h-18.469z"/><path style="-inkscape-font-specification:'Big John'" d="M71.925 188.862h18.281v52.031h18.469v-52.031h18.656v-18.375h-55.406v18.375z"/><path style="-inkscape-font-specification:'Big John'" d="M148.419 170.581h-8.344v70.313h18.563v-36l18.469 16.688 18.375-16.781v36.094h18.563v-70.313h-8.344l-28.594 26.063-28.688-26.063z"/><path style="-inkscape-font-specification:'Big John'" d="M228.149 240.893h43.781v-18.563h-25.313v-51.75h-18.469v70.313z"/></g></svg>